<?xml version="1.0" standalone="no"?>
<!DOCTYPE svg PUBLIC "-//W3C//DTD SVG 20010904//EN"
 "http://www.w3.org/TR/2001/REC-SVG-20010904/DTD/svg10.dtd">
<svg version="1.0" xmlns="http://www.w3.org/2000/svg"
 width="1094.000000pt" height="1094.000000pt" viewBox="0 0 1094.000000 1094.000000"
 preserveAspectRatio="xMidYMid meet">
<metadata>
Created by potrace 1.11, written by Peter Selinger 2001-2013
</metadata>
<g transform="translate(0.000000,1094.000000) scale(0.100000,-0.100000)"
fill="#000000" stroke="none">
<path d="M1645 10522 c-307 -170 -534 -411 -673 -713 -71 -154 -136 -370 -158
-524 -3 -27 -8 -59 -10 -70 -27 -147 -26 -626 1 -815 3 -19 10 -66 16 -105 5
-38 14 -88 19 -110 5 -22 11 -53 14 -70 8 -58 18 -70 61 -71 22 -1 118 -5 212
-9 l173 -6 -21 48 c-35 82 -50 163 -54 293 -4 108 8 261 29 356 2 12 7 38 10
59 4 20 8 41 11 45 3 4 7 24 11 45 7 49 63 236 104 350 45 128 45 124 22 154
-123 167 -50 547 199 1029 38 72 67 132 66 131 -1 0 -15 -8 -32 -17z"/>
<path d="M844 10239 c-334 -192 -558 -418 -680 -686 -38 -83 -79 -215 -89
-284 -3 -24 -8 -55 -11 -70 -12 -61 -5 -296 11 -379 3 -14 10 -52 16 -85 25
-138 162 -484 220 -557 11 -13 36 -19 109 -23 199 -11 270 -14 270 -10 0 3
-15 26 -33 52 -103 148 -151 390 -151 763 1 103 10 307 18 400 10 106 18 178
21 200 3 14 7 45 10 70 4 25 8 56 10 70 2 14 7 45 10 70 4 25 7 49 8 54 1 6
18 21 37 34 52 35 114 105 185 207 68 98 138 215 132 221 -2 2 -43 -19 -93
-47z"/>
<path d="M9373 10202 l-33 -3 39 -42 c192 -206 319 -441 359 -664 56 -315 -73
-678 -337 -952 l-61 -64 0 -213 c0 -246 -11 -225 108 -199 239 50 437 205 529
413 13 31 51 89 82 127 199 243 265 458 203 661 -22 72 -79 169 -126 213 -18
17 -23 28 -17 40 8 15 24 79 36 146 11 57 5 154 -14 215 -49 157 -197 260
-436 305 -67 12 -273 23 -332 17z"/>
<path d="M2215 9724 c-232 -118 -425 -314 -543 -549 -35 -71 -88 -203 -97
-245 -2 -8 -13 -51 -24 -95 -41 -163 -58 -318 -59 -525 0 -138 11 -307 22
-317 1 -1 51 -5 112 -8 60 -3 148 -8 196 -10 l87 -5 -8 27 c-11 40 -4 175 14
268 24 124 87 333 157 518 22 60 36 112 32 116 -5 4 -34 18 -66 30 -49 20 -57
27 -62 55 -23 120 86 396 276 699 26 42 45 77 41 77 -5 -1 -39 -17 -78 -36z"/>
<path d="M10680 9615 c-2 -78 -25 -231 -52 -345 -37 -156 -116 -354 -197 -495
-154 -269 -336 -476 -642 -730 -85 -72 -322 -225 -449 -291 l-55 -29 0 -283 0
-283 50 6 c28 3 70 8 94 11 58 7 251 58 321 84 220 84 467 245 625 406 137
140 272 290 306 339 136 194 124 476 -32 776 l-41 79 26 33 c44 54 97 138 133
209 89 181 75 360 -37 481 -39 41 -49 48 -50 32z"/>
<path d="M2674 9047 c-195 -122 -351 -290 -457 -493 -35 -69 -100 -248 -110
-309 -3 -16 -8 -40 -11 -53 -13 -60 -26 -251 -17 -256 3 -2 71 -7 151 -10 80
-4 158 -9 174 -12 24 -4 27 -2 22 13 -38 98 -49 145 -50 228 -2 178 36 328
136 544 38 83 154 291 167 301 8 6 54 80 49 79 -2 0 -26 -15 -54 -32z"/>
<path d="M2915 8626 c-107 -69 -210 -211 -290 -398 -49 -117 -117 -339 -107
-350 4 -3 21 -9 37 -11 41 -7 209 -45 226 -51 8 -3 25 -7 39 -10 l25 -4 0 257
c1 202 5 274 18 344 22 110 50 184 84 219 38 40 26 41 -32 4z"/>
<path d="M9020 8089 c-175 -164 -203 -189 -385 -346 -297 -256 -563 -446 -759
-544 -119 -59 -184 -78 -256 -74 l-52 3 6 -31 c3 -18 8 -59 11 -92 4 -33 9
-71 11 -85 30 -183 24 -726 -11 -1000 -4 -30 -9 -67 -10 -82 -2 -15 -8 -53
-14 -85 -5 -32 -12 -71 -15 -88 -4 -27 -27 -133 -42 -195 -21 -89 -84 -112
-127 -46 -32 48 -79 213 -101 351 -19 120 -21 138 -31 230 -3 28 -8 61 -10 75
-6 44 -28 300 -39 465 -6 83 -15 251 -21 389 -3 54 -7 101 -9 104 -9 9 -265
-168 -382 -264 -287 -236 -550 -518 -817 -874 -47 -63 -95 -126 -105 -140 -33
-43 -197 -292 -243 -368 -78 -129 -77 -105 -10 -239 103 -204 181 -392 248
-593 33 -100 106 -372 117 -435 16 -91 36 -228 41 -282 7 -70 9 -68 -70 -63
-92 5 -229 120 -340 285 -108 160 -258 484 -354 759 -11 32 -22 61 -24 63 -3
2 -29 -19 -58 -47 -30 -28 -76 -72 -104 -97 -27 -25 -102 -94 -165 -153 -63
-60 -131 -122 -150 -140 -40 -37 -100 -93 -295 -275 -129 -121 -200 -186 -284
-264 -19 -17 -32 -33 -30 -34 2 -2 58 -20 124 -42 220 -72 514 -236 765 -428
257 -196 549 -463 754 -688 l47 -52 54 12 c129 29 316 118 603 286 87 51 305
197 468 313 l121 86 -28 48 c-16 26 -27 48 -24 48 2 0 -2 15 -10 33 -27 66
-96 357 -121 513 -3 20 -8 46 -10 58 -2 11 -11 68 -20 126 -8 58 -17 116 -20
130 -2 14 -7 48 -9 75 -3 28 -10 73 -15 100 -5 28 -12 79 -15 114 -3 36 -8 68
-11 72 -2 4 0 10 4 13 16 10 274 -205 413 -343 206 -207 354 -403 448 -594 48
-99 42 -96 136 -50 121 60 351 268 450 408 67 95 140 175 256 281 52 48 216
173 236 181 10 4 12 20 6 77 -13 127 -7 498 12 716 1 19 6 78 9 130 4 52 9
106 11 120 2 14 7 63 11 110 3 47 8 96 9 110 2 14 6 57 9 95 4 39 9 86 11 105
2 19 7 64 10 100 4 36 9 79 11 95 2 17 6 59 9 95 4 36 8 72 10 80 3 8 7 44 10
80 3 36 8 76 10 90 2 14 6 48 10 75 3 28 7 73 10 100 7 63 13 107 35 285 6 47
12 99 15 115 7 52 35 278 41 325 3 25 7 56 9 70 2 14 7 45 10 70 4 25 8 56 10
70 2 14 11 83 20 154 9 71 18 137 20 148 3 11 7 46 11 77 3 31 8 59 11 64 9
15 -4 5 -57 -44z"/>
<path d="M396 7774 c193 -191 293 -298 420 -449 594 -703 1126 -1581 1546
-2555 27 -63 68 -160 89 -215 22 -55 44 -109 48 -120 5 -11 19 -47 31 -80 43
-119 10 -105 252 -105 117 -1 391 -3 608 -6 217 -2 532 -5 700 -7 l305 -2 1
75 c0 41 -3 91 -7 110 -12 54 -70 313 -74 330 -2 8 -15 60 -30 115 -15 55 -29
110 -32 121 -5 20 -9 21 -61 16 -82 -9 -465 -8 -545 1 -160 18 -266 43 -359
86 -184 86 -242 253 -110 320 62 31 184 52 321 53 112 1 304 -8 349 -17 9 -1
48 -6 87 -10 38 -4 72 -8 75 -10 3 -2 36 -7 74 -10 63 -6 67 -6 58 12 -5 10
-38 77 -72 148 -104 218 -164 343 -240 500 -40 83 -85 178 -101 212 l-29 61
-73 -5 c-161 -13 -618 -6 -728 12 -13 2 -58 9 -99 15 -137 22 -269 72 -328
124 -98 86 -65 240 62 297 48 21 131 35 196 34 38 -1 194 -16 210 -20 3 -1 25
-5 50 -9 124 -21 390 -98 528 -153 35 -13 66 -22 69 -19 4 3 -220 295 -334
436 -7 8 -85 107 -173 220 -88 113 -170 216 -181 230 -11 14 -44 55 -72 93
-31 40 -60 68 -72 68 -11 1 -29 3 -40 5 -11 1 -47 5 -80 8 -54 6 -114 14 -155
21 -8 2 -47 6 -85 9 -39 4 -80 8 -90 10 -11 2 -51 7 -90 11 -38 3 -83 8 -100
10 -27 4 -227 27 -345 41 -25 3 -76 9 -115 14 -38 5 -95 12 -125 15 -57 5 -93
10 -220 25 -41 5 -97 12 -125 15 -27 3 -66 7 -85 10 -19 2 -78 9 -130 15 -52
6 -113 13 -135 16 -44 5 -66 8 -205 24 -52 6 -109 13 -126 15 -17 2 -57 7 -90
10 -32 3 -72 8 -89 10 -16 2 -52 7 -80 11 l-50 6 201 -198z"/>
<path d="M10825 7837 c-35 -61 -143 -192 -212 -256 -291 -273 -753 -485 -1293
-591 -56 -11 -103 -20 -106 -20 -2 0 -4 -85 -4 -189 l0 -189 33 3 c17 2 73 6
122 10 50 4 104 9 120 11 17 2 53 6 80 9 28 3 57 8 65 10 8 2 35 7 60 10 269
35 598 148 771 266 81 54 168 144 196 201 20 40 21 47 9 83 -20 58 -10 133 41
305 26 90 119 326 136 348 5 7 8 14 5 17 -2 2 -12 -10 -23 -28z"/>
<path d="M10727 6905 c-227 -213 -603 -375 -992 -429 -22 -3 -71 -10 -110 -16
-38 -6 -160 -13 -270 -16 -110 -4 -201 -7 -202 -8 -1 -1 -14 -195 -17 -269 -2
-43 0 -49 28 -65 51 -30 122 -53 204 -67 117 -21 359 -16 498 9 148 27 188 38
235 66 410 238 656 517 708 802 4 25 5 51 2 56 -3 5 -41 -23 -84 -63z"/>
<path d="M9074 5943 c-1 -16 -4 -121 -9 -236 l-7 -207 26 -35 c48 -63 186
-112 396 -141 14 -1 92 -6 174 -10 128 -6 148 -5 144 8 -10 25 17 71 78 134
63 64 242 214 362 302 39 30 72 55 72 57 0 2 -10 2 -22 0 -171 -28 -441 -37
-608 -21 -203 20 -437 83 -558 151 -25 14 -45 25 -46 25 0 0 -1 -12 -2 -27z"/>
<path d="M9019 5285 c0 -22 -2 -49 -4 -60 -2 -11 -6 -73 -8 -137 -5 -103 -3
-118 11 -122 291 -86 557 -57 641 71 17 26 31 52 31 59 0 7 2 19 5 26 5 12
-17 14 -134 13 -200 -3 -332 23 -438 87 -30 18 -66 49 -79 68 l-24 35 -1 -40z"/>
<path d="M2669 3996 c-2 -2 -40 -6 -84 -10 -44 -3 -91 -8 -105 -11 -14 -3 -45
-8 -70 -11 -184 -24 -508 -135 -735 -252 -126 -65 -415 -253 -471 -306 -6 -6
-51 -42 -98 -81 l-88 -70 6 -90 c7 -107 8 -117 42 -231 49 -172 148 -322 281
-426 66 -52 106 -78 119 -78 3 0 3 26 -1 58 -9 68 -11 81 -20 151 -4 30 -8 61
-10 70 -1 9 -6 46 -9 82 l-7 66 78 32 c72 29 255 85 313 96 14 3 34 7 45 9 27
5 111 17 155 22 59 7 222 6 270 0 25 -4 63 -9 85 -12 53 -7 174 -48 238 -80
83 -43 137 -83 215 -161 83 -84 67 -79 280 -88 l149 -6 28 58 c108 219 256
436 380 555 86 83 217 149 280 142 167 -18 303 -136 437 -379 66 -121 151
-344 198 -525 5 -19 15 -57 23 -85 l13 -50 59 -13 c66 -13 272 -18 349 -8 153
20 326 74 444 138 108 59 117 34 -89 241 -436 437 -882 757 -1358 976 -120 55
-331 137 -406 157 -192 52 -347 86 -460 100 -27 3 -59 8 -70 11 -25 5 -400 14
-406 9z m-707 -386 c-13 -11 -73 -65 -133 -122 l-110 -103 -160 -62 c-89 -35
-165 -63 -170 -63 -22 0 58 135 117 196 78 81 203 146 307 161 23 3 44 7 46 9
2 2 32 4 65 4 l61 -1 -23 -19z"/>
<path d="M3827 3233 c-40 -6 -146 -117 -243 -254 -86 -120 -254 -384 -254
-398 0 -4 26 -4 58 2 67 11 283 13 362 4 126 -16 180 -25 251 -46 101 -29 198
-69 279 -113 41 -22 77 -44 80 -47 3 -4 21 -17 41 -29 l36 -22 -9 61 c-4 34
-10 73 -13 88 -3 14 -8 42 -11 61 -3 19 -14 71 -26 115 -93 371 -250 570 -458
580 -36 2 -78 1 -93 -2z"/>
<path d="M6596 2843 c-77 -87 -277 -201 -484 -276 l-90 -32 162 -165 c89 -91
202 -210 251 -265 49 -55 91 -102 95 -105 15 -14 132 -164 173 -221 55 -78 97
-164 97 -200 0 -33 -43 -65 -114 -83 -88 -23 -175 -7 -296 56 -202 105 -456
351 -717 695 l-86 113 -26 -19 c-34 -24 -163 -68 -251 -86 -140 -29 -222 -45
-255 -50 -22 -3 -65 -10 -95 -15 -61 -10 -90 -15 -170 -26 -30 -4 -57 -8 -60
-9 -3 -1 -31 -5 -63 -9 l-59 -8 84 -55 c295 -196 588 -525 803 -903 49 -84
185 -355 185 -366 0 -3 11 -29 24 -57 13 -29 27 -63 31 -77 4 -14 16 -44 26
-67 l18 -41 128 39 c170 53 369 119 473 159 47 17 128 48 180 67 270 102 977
427 988 455 2 4 9 8 16 8 16 0 269 141 465 258 80 48 156 94 170 102 153 90
617 415 604 423 -7 4 -197 52 -243 62 -90 18 -623 173 -800 231 -451 150 -821
312 -1023 448 -55 36 -100 66 -100 65 -1 0 -20 -21 -41 -46z"/>
<path d="M2869 2472 c-174 -383 -423 -775 -643 -1010 -27 -29 -47 -54 -45 -56
2 -2 25 -7 51 -10 132 -18 270 -101 440 -264 l107 -104 201 137 c185 126 217
155 172 155 -32 0 -137 57 -174 95 -63 64 -90 135 -94 245 -5 157 37 312 147
535 61 124 72 144 126 233 28 44 30 52 15 53 -9 0 -24 2 -33 4 -8 1 -42 6 -75
9 -59 7 -109 14 -152 21 -18 3 -26 -5 -43 -43z"/>
<path d="M3384 2421 c-29 -13 -96 -91 -122 -143 -22 -43 -44 -133 -34 -142 3
-3 -14 -26 -37 -51 -92 -99 -148 -213 -153 -310 -7 -136 86 -257 271 -349 40
-21 75 -35 78 -33 2 3 -7 27 -20 54 -70 138 -96 301 -62 389 29 77 82 119 177
142 42 11 55 9 139 -18 264 -87 425 -214 452 -356 6 -29 1 -36 -60 -90 -36
-33 -75 -65 -85 -73 -26 -18 -12 -30 43 -37 24 -3 53 -7 64 -9 33 -5 120 22
161 50 22 14 58 47 81 72 44 47 118 185 129 238 5 28 2 32 -33 49 -57 27 -152
97 -206 152 -91 93 -146 211 -148 320 -1 48 -4 52 -33 62 -55 19 -230 58 -346
77 -67 11 -235 15 -256 6z"/>
<path d="M1503 1334 c-189 -32 -320 -140 -421 -344 l-47 -95 1 -105 c0 -83 5
-117 22 -161 38 -95 100 -152 194 -180 28 -8 30 -7 23 14 -67 208 -51 344 48
401 41 24 121 43 162 40 107 -10 118 -8 134 16 31 46 99 107 147 131 39 19 64
24 120 23 102 -2 177 -42 310 -166 57 -53 113 -100 125 -103 60 -19 182 -125
210 -181 39 -81 6 -136 -117 -200 l-49 -24 60 4 c192 13 314 144 328 354 l4
62 -115 77 c-64 42 -138 86 -166 97 -28 12 -85 44 -126 72 -315 211 -618 307
-847 268z"/>
</g>
</svg>
